<svg width="99" height="126" viewBox="0 0 99 126" fill="none" xmlns="http://www.w3.org/2000/svg">
<rect width="98.7402" height="125.561" rx="10.1925" fill="#232426"/>
<g clip-path="url(#clip0_4111_39191)">
<path d="M64.879 24.1179C64.643 24.2985 60.4758 26.6142 60.4758 31.7633C60.4758 37.719 65.7783 39.826 65.9371 39.8782C65.9126 40.0066 65.0947 42.7637 63.1413 45.5731C61.3996 48.0453 59.5805 50.5134 56.8132 50.5134C54.046 50.5134 53.3338 48.9282 50.1393 48.9282C47.0261 48.9282 45.9192 50.5656 43.388 50.5656C40.8567 50.5656 39.0906 48.278 37.0599 45.4687C34.7077 42.1698 32.8073 37.0448 32.8073 32.1806C32.8073 24.3788 37.9511 20.241 43.0136 20.241C45.7035 20.241 47.9458 21.9828 49.6346 21.9828C51.2421 21.9828 53.7489 20.1367 56.8092 20.1367C57.969 20.1367 62.1361 20.241 64.879 24.1179ZM55.3564 16.8337C56.622 15.3528 57.5173 13.298 57.5173 11.2432C57.5173 10.9583 57.4928 10.6693 57.4399 10.4365C55.3808 10.5128 52.9309 11.789 51.4537 13.4786C50.2939 14.7789 49.2114 16.8337 49.2114 18.9166C49.2114 19.2297 49.2643 19.5427 49.2887 19.6431C49.419 19.6671 49.6306 19.6952 49.8422 19.6952C51.6897 19.6952 54.0134 18.4752 55.3564 16.8337Z" fill="white"/>
</g>
<path d="M30.4787 64.1182H27.4633L26.7392 66.2564H25.462L28.3181 58.3457H29.6451L32.5011 66.2564H31.2022L30.4787 64.1182ZM27.7756 63.1316H30.1658L28.9875 59.6615H28.9545L27.7756 63.1316Z" fill="white"/>
<path d="M38.6694 63.373C38.6694 65.1653 37.7101 66.3168 36.2625 66.3168C35.8958 66.3359 35.5311 66.2515 35.2102 66.073C34.8892 65.8946 34.625 65.6293 34.4478 65.3077H34.4204V68.1644H33.2366V60.4889H34.3825V61.4482H34.4043C34.5896 61.1281 34.8583 60.8642 35.1817 60.6847C35.505 60.5052 35.871 60.4166 36.2407 60.4286C37.7045 60.4286 38.6694 61.5857 38.6694 63.373ZM37.4526 63.373C37.4526 62.2053 36.8491 61.4376 35.9284 61.4376C35.0239 61.4376 34.4155 62.2215 34.4155 63.373C34.4155 64.5351 35.0239 65.3133 35.9284 65.3133C36.8491 65.3133 37.4526 64.5512 37.4526 63.373Z" fill="white"/>
<path d="M45.0173 63.373C45.0173 65.1652 44.058 66.3168 42.6104 66.3168C42.2437 66.3359 41.879 66.2515 41.5581 66.073C41.2371 65.8946 40.9729 65.6293 40.7957 65.3077H40.7683V68.1644H39.5845V60.4889H40.7304V61.4482H40.7522C40.9375 61.1281 41.2062 60.8642 41.5295 60.6847C41.8529 60.5051 42.2189 60.4166 42.5886 60.4286C44.0524 60.4286 45.0173 61.5857 45.0173 63.373ZM43.8005 63.373C43.8005 62.2053 43.197 61.4376 42.2763 61.4376C41.3718 61.4376 40.7634 62.2215 40.7634 63.373C40.7634 64.5351 41.3718 65.3133 42.2763 65.3133C43.197 65.3133 43.8005 64.5512 43.8005 63.373Z" fill="white"/>
<path d="M49.2127 64.0523C49.3004 64.8368 50.0625 65.3519 51.1039 65.3519C52.1018 65.3519 52.8197 64.8368 52.8197 64.1294C52.8197 63.5154 52.3867 63.1478 51.3615 62.8958L50.3363 62.6488C48.8836 62.298 48.2093 61.6186 48.2093 60.5163C48.2093 59.1514 49.3987 58.2139 51.0877 58.2139C52.7593 58.2139 53.9053 59.1514 53.9438 60.5163H52.7487C52.6772 59.7268 52.0246 59.2503 51.0709 59.2503C50.1173 59.2503 49.4647 59.7324 49.4647 60.4342C49.4647 60.9934 49.8815 61.3225 50.9011 61.5744L51.7727 61.7885C53.3957 62.1723 54.0701 62.8243 54.0701 63.9814C54.0701 65.4613 52.8912 66.3883 51.0162 66.3883C49.2619 66.3883 48.0774 65.4831 48.0009 64.0523L49.2127 64.0523Z" fill="white"/>
<path d="M56.6251 59.124V60.4889H57.7219V61.4264H56.6251V64.606C56.6251 65.0999 56.8447 65.3301 57.3268 65.3301C57.457 65.3279 57.587 65.3187 57.7163 65.3027V66.2346C57.4995 66.2751 57.2792 66.2935 57.0587 66.2894C55.891 66.2894 55.4356 65.8508 55.4356 64.7323V61.4264H54.597V60.4889H55.4356V59.124H56.6251Z" fill="white"/>
<path d="M58.3571 63.3732C58.3571 61.5585 59.4258 60.4182 61.0924 60.4182C62.7647 60.4182 63.8285 61.5585 63.8285 63.3732C63.8285 65.1929 62.7703 66.3282 61.0924 66.3282C59.4152 66.3282 58.3571 65.1928 58.3571 63.3732ZM62.6222 63.3732C62.6222 62.1284 62.0517 61.3937 61.0924 61.3937C60.1332 61.3937 59.5633 62.134 59.5633 63.3732C59.5633 64.623 60.1332 65.3521 61.0924 65.3521C62.0517 65.3521 62.6222 64.623 62.6222 63.3732Z" fill="white"/>
<path d="M64.8044 60.4888H65.9336V61.4705H65.961C66.0374 61.1639 66.217 60.893 66.4696 60.7032C66.7222 60.5134 67.0325 60.4164 67.3482 60.4285C67.4847 60.428 67.6207 60.4428 67.7539 60.4727V61.58C67.5816 61.5274 67.402 61.5032 67.2219 61.5085C67.05 61.5015 66.8785 61.5318 66.7193 61.5974C66.5602 61.6629 66.4171 61.7621 66.2999 61.8882C66.1827 62.0142 66.0942 62.1642 66.0404 62.3277C65.9866 62.4912 65.9688 62.6644 65.9883 62.8354V66.2564H64.8044L64.8044 60.4888Z" fill="white"/>
<path d="M73.2122 64.5627C73.0529 65.6097 72.0333 66.3282 70.7287 66.3282C69.0509 66.3282 68.0095 65.204 68.0095 63.4006C68.0095 61.5915 69.0565 60.4182 70.679 60.4182C72.2747 60.4182 73.2781 61.5144 73.2781 63.2631V63.6687H69.2046V63.7402C69.1858 63.9525 69.2124 64.1663 69.2825 64.3675C69.3527 64.5687 69.4649 64.7527 69.6117 64.9072C69.7584 65.0617 69.9364 65.1832 70.1337 65.2637C70.331 65.3442 70.5432 65.3817 70.7561 65.3739C71.0359 65.4001 71.3166 65.3353 71.5566 65.1891C71.7966 65.043 71.983 64.8233 72.088 64.5627L73.2122 64.5627ZM69.2102 62.8413H72.0936C72.1043 62.6504 72.0753 62.4595 72.0086 62.2803C71.942 62.1012 71.839 61.9378 71.7061 61.8003C71.5733 61.6629 71.4135 61.5543 71.2367 61.4816C71.06 61.4088 70.8701 61.3734 70.679 61.3775C70.4862 61.3763 70.2951 61.4134 70.1167 61.4865C69.9383 61.5596 69.7761 61.6673 69.6396 61.8034C69.503 61.9395 69.3948 62.1012 69.3211 62.2794C69.2474 62.4575 69.2097 62.6485 69.2102 62.8413Z" fill="white"/>
<path d="M17.5268 76.8176C17.7326 76.4034 18.3234 76.4034 18.5292 76.8176L20.2099 80.2003C20.2914 80.3644 20.448 80.4781 20.6292 80.5049L24.3657 81.0581C24.8232 81.1258 25.0058 81.6878 24.6755 82.0115L21.9777 84.6552C21.8469 84.7834 21.7871 84.9675 21.8176 85.1481L22.4462 88.8727C22.5231 89.3287 22.0451 89.676 21.6352 89.4619L18.2871 87.7131C18.1248 87.6283 17.9312 87.6283 17.7689 87.7131L14.4209 89.4619C14.0109 89.676 13.5329 89.3287 13.6099 88.8727L14.2385 85.1481C14.2689 84.9675 14.2091 84.7834 14.0783 84.6552L11.3805 82.0115C11.0502 81.6878 11.2328 81.1258 11.6903 81.0581L15.4268 80.5049C15.608 80.4781 15.7646 80.3644 15.8461 80.2003L17.5268 76.8176Z" fill="#FCD503"/>
<path d="M33.1978 76.8176C33.4036 76.4034 33.9945 76.4034 34.2003 76.8176L35.881 80.2003C35.9625 80.3644 36.1191 80.4781 36.3002 80.5049L40.0367 81.0581C40.4943 81.1258 40.6768 81.6878 40.3465 82.0115L37.6487 84.6552C37.5179 84.7834 37.4581 84.9675 37.4886 85.1481L38.1172 88.8727C38.1941 89.3287 37.7161 89.676 37.3062 89.4619L33.9582 87.7131C33.7958 87.6283 33.6023 87.6283 33.4399 87.7131L30.0919 89.4619C29.6819 89.676 29.2039 89.3287 29.2809 88.8727L29.9095 85.1481C29.94 84.9675 29.8801 84.7834 29.7493 84.6552L27.0516 82.0115C26.7212 81.6878 26.9038 81.1258 27.3613 81.0581L31.0978 80.5049C31.279 80.4781 31.4356 80.3644 31.5171 80.2003L33.1978 76.8176Z" fill="#FCD503"/>
<path d="M48.8688 76.8176C49.0746 76.4034 49.6655 76.4034 49.8713 76.8176L51.552 80.2003C51.6335 80.3644 51.7901 80.4781 51.9713 80.5049L55.7078 81.0581C56.1653 81.1258 56.3479 81.6878 56.0175 82.0115L53.3198 84.6552C53.189 84.7834 53.1291 84.9675 53.1596 85.1481L53.7882 88.8727C53.8652 89.3287 53.3872 89.676 52.9772 89.4619L49.6292 87.7131C49.4668 87.6283 49.2733 87.6283 49.1109 87.7131L45.7629 89.4619C45.353 89.676 44.8749 89.3287 44.9519 88.8727L45.5805 85.1481C45.611 84.9675 45.5512 84.7834 45.4204 84.6552L42.7226 82.0115C42.3922 81.6878 42.5748 81.1258 43.0323 81.0581L46.7689 80.5049C46.95 80.4781 47.1066 80.3644 47.1881 80.2003L48.8688 76.8176Z" fill="#FCD503"/>
<path d="M64.5399 76.8176C64.7456 76.4034 65.3365 76.4034 65.5423 76.8176L67.223 80.2003C67.3045 80.3644 67.4611 80.4781 67.6423 80.5049L71.3788 81.0581C71.8363 81.1258 72.0189 81.6878 71.6886 82.0115L68.9908 84.6552C68.86 84.7834 68.8002 84.9675 68.8306 85.1481L69.4592 88.8727C69.5362 89.3287 69.0582 89.676 68.6482 89.4619L65.3002 87.7131C65.1379 87.6283 64.9443 87.6283 64.782 87.7131L61.4339 89.4619C61.024 89.676 60.546 89.3287 60.6229 88.8727L61.2515 85.1481C61.282 84.9675 61.2222 84.7834 61.0914 84.6552L58.3936 82.0115C58.0633 81.6878 58.2459 81.1258 58.7034 81.0581L62.4399 80.5049C62.6211 80.4781 62.7777 80.3644 62.8591 80.2003L64.5399 76.8176Z" fill="#FCD503"/>
<path d="M80.2178 76.7395C80.4282 76.3433 80.996 76.3433 81.2064 76.7395L82.988 80.094C83.0689 80.2463 83.2155 80.3528 83.3854 80.3827L87.1263 81.0405C87.5681 81.1182 87.7435 81.6582 87.4317 81.9807L84.792 84.7118C84.6721 84.8358 84.6161 85.0081 84.6402 85.1789L85.1706 88.94C85.2332 89.3842 84.7739 89.7179 84.3708 89.521L80.9577 87.8544C80.8027 87.7787 80.6215 87.7787 80.4665 87.8544L77.0534 89.521C76.6503 89.7179 76.191 89.3842 76.2536 88.94L76.784 85.1789C76.8081 85.0081 76.7521 84.8358 76.6322 84.7118L73.9924 81.9807C73.6807 81.6582 73.8561 81.1182 74.2979 81.0405L78.0388 80.3827C78.2087 80.3528 78.3553 80.2463 78.4362 80.094L80.2178 76.7395Z" fill="#6A6A6A"/>
<mask id="mask0_4111_39191" style="mask-type:alpha" maskUnits="userSpaceOnUse" x="72" y="75" width="11" height="17">
<rect x="72.8766" y="75.8088" width="9.23471" height="15.671" fill="#D9D9D9"/>
</mask>
<g mask="url(#mask0_4111_39191)">
<path d="M80.2178 76.7395C80.4282 76.3433 80.996 76.3433 81.2064 76.7395L82.988 80.094C83.0689 80.2463 83.2155 80.3528 83.3854 80.3827L87.1263 81.0405C87.5681 81.1182 87.7435 81.6582 87.4317 81.9807L84.792 84.7118C84.6721 84.8358 84.6161 85.0081 84.6402 85.1789L85.1706 88.94C85.2332 89.3842 84.7739 89.7179 84.3708 89.521L80.9577 87.8544C80.8027 87.7787 80.6215 87.7787 80.4665 87.8544L77.0534 89.521C76.6503 89.7179 76.191 89.3842 76.2536 88.94L76.784 85.1789C76.8081 85.0081 76.7521 84.8358 76.6322 84.7118L73.9924 81.9807C73.6807 81.6582 73.8561 81.1182 74.2979 81.0405L78.0388 80.3827C78.2087 80.3528 78.3553 80.2463 78.4362 80.094L80.2178 76.7395Z" fill="#FCD503"/>
</g>
<path d="M16.3955 103.712V111.124H15.2735V104.834H15.23L13.4565 105.992V104.92L15.306 103.712H16.3955ZM20.9814 111.247C20.4096 111.245 19.9209 111.094 19.5155 110.795C19.1101 110.496 18.8001 110.06 18.5853 109.488C18.3706 108.916 18.2632 108.227 18.2632 107.422C18.2632 106.618 18.3706 105.931 18.5853 105.362C18.8025 104.793 19.1138 104.358 19.5192 104.059C19.927 103.76 20.4144 103.61 20.9814 103.61C21.5485 103.61 22.0347 103.761 22.4401 104.063C22.8455 104.362 23.1556 104.796 23.3703 105.366C23.5875 105.933 23.6961 106.618 23.6961 107.422C23.6961 108.23 23.5887 108.92 23.3739 109.492C23.1592 110.061 22.8491 110.497 22.4437 110.799C22.0383 111.098 21.5509 111.247 20.9814 111.247ZM20.9814 110.281C21.4833 110.281 21.8755 110.036 22.1578 109.546C22.4425 109.056 22.5849 108.348 22.5849 107.422C22.5849 106.806 22.5197 106.286 22.3894 105.862C22.2615 105.434 22.0769 105.111 21.8356 104.891C21.5968 104.669 21.312 104.558 20.9814 104.558C20.4819 104.558 20.0898 104.805 19.8051 105.297C19.5204 105.789 19.3768 106.497 19.3744 107.422C19.3744 108.039 19.4383 108.562 19.5662 108.989C19.6965 109.413 19.8811 109.736 20.12 109.955C20.3589 110.172 20.646 110.281 20.9814 110.281ZM27.5608 111.247C26.9889 111.245 26.5003 111.094 26.0949 110.795C25.6895 110.496 25.3794 110.06 25.1647 109.488C24.9499 108.916 24.8425 108.227 24.8425 107.422C24.8425 106.618 24.9499 105.931 25.1647 105.362C25.3819 104.793 25.6931 104.358 26.0985 104.059C26.5063 103.76 26.9937 103.61 27.5608 103.61C28.1279 103.61 28.6141 103.761 29.0195 104.063C29.4248 104.362 29.7349 104.796 29.9497 105.366C30.1668 105.933 30.2754 106.618 30.2754 107.422C30.2754 108.23 30.168 108.92 29.9533 109.492C29.7385 110.061 29.4285 110.497 29.0231 110.799C28.6177 111.098 28.1303 111.247 27.5608 111.247ZM27.5608 110.281C28.0627 110.281 28.4548 110.036 28.7371 109.546C29.0219 109.056 29.1642 108.348 29.1642 107.422C29.1642 106.806 29.0991 106.286 28.9688 105.862C28.8409 105.434 28.6563 105.111 28.415 104.891C28.1761 104.669 27.8914 104.558 27.5608 104.558C27.0613 104.558 26.6692 104.805 26.3845 105.297C26.0997 105.789 25.9561 106.497 25.9537 107.422C25.9537 108.039 26.0177 108.562 26.1456 108.989C26.2759 109.413 26.4605 109.736 26.6994 109.955C26.9382 110.172 27.2254 110.281 27.5608 110.281ZM33.7529 109.879V104.986H34.7265V109.879H33.7529ZM31.7947 107.917V106.947H36.6883V107.917H31.7947ZM41.1466 111.124V103.712H43.7889C44.3632 103.712 44.8397 103.81 45.2186 104.008C45.5998 104.206 45.8846 104.48 46.0728 104.83C46.261 105.177 46.3551 105.579 46.3551 106.035C46.3551 106.489 46.2598 106.888 46.0692 107.233C45.8809 107.576 45.5962 107.843 45.2149 108.033C44.8361 108.224 44.3595 108.319 43.7852 108.319H41.7837V107.356H43.6839C44.0458 107.356 44.3402 107.304 44.5671 107.201C44.7963 107.097 44.964 106.946 45.0702 106.748C45.1763 106.55 45.2294 106.313 45.2294 106.035C45.2294 105.755 45.1751 105.513 45.0665 105.308C44.9604 105.103 44.7927 104.946 44.5634 104.837C44.3366 104.726 44.0386 104.671 43.6694 104.671H42.265V111.124H41.1466ZM44.8059 107.78L46.6374 111.124H45.3633L43.5681 107.78H44.8059ZM47.716 111.124V103.712H52.3635V104.674H48.8345V106.933H52.121V107.892H48.8345V110.161H52.4069V111.124H47.716ZM54.5053 103.712L56.5684 109.749H56.6517L58.7148 103.712H59.9237L57.2561 111.124H55.964L53.2964 103.712H54.5053ZM62.1126 103.712V111.124H60.9942V103.712H62.1126ZM63.7414 111.124V103.712H68.3889V104.674H64.8598V106.933H68.1463V107.892H64.8598V110.161H68.4323V111.124H63.7414ZM71.3342 111.124L69.2783 103.712H70.4547L71.8989 109.452H71.9676L73.4697 103.712H74.6352L76.1373 109.456H76.2061L77.6466 103.712H78.8266L76.7671 111.124H75.6414L74.0814 105.572H74.0235L72.4635 111.124H71.3342ZM83.8695 105.659C83.8309 105.316 83.6716 105.051 83.3917 104.863C83.1118 104.672 82.7595 104.577 82.3348 104.577C82.0308 104.577 81.7678 104.625 81.5458 104.721C81.3238 104.815 81.1512 104.946 81.0282 105.112C80.9075 105.276 80.8472 105.463 80.8472 105.673C80.8472 105.849 80.8882 106.001 80.9703 106.129C81.0547 106.257 81.1645 106.365 81.2996 106.451C81.4372 106.536 81.5844 106.607 81.7412 106.665C81.8981 106.721 82.0489 106.766 82.1937 106.803L82.9176 106.991C83.154 107.049 83.3965 107.127 83.6451 107.226C83.8936 107.325 84.1241 107.455 84.3364 107.617C84.5487 107.779 84.7201 107.979 84.8504 108.218C84.9831 108.457 85.0494 108.743 85.0494 109.076C85.0494 109.495 84.9409 109.868 84.7237 110.194C84.5089 110.52 84.1965 110.777 83.7862 110.965C83.3784 111.153 82.885 111.247 82.3059 111.247C81.7509 111.247 81.2707 111.159 80.8653 110.983C80.4599 110.807 80.1426 110.557 79.9134 110.234C79.6841 109.908 79.5574 109.522 79.5333 109.076H80.6554C80.6771 109.343 80.7639 109.567 80.916 109.745C81.0704 109.921 81.2671 110.053 81.5059 110.14C81.7472 110.224 82.0115 110.266 82.2986 110.266C82.6147 110.266 82.8958 110.217 83.142 110.118C83.3905 110.017 83.586 109.877 83.7283 109.698C83.8707 109.517 83.9419 109.306 83.9419 109.065C83.9419 108.845 83.8791 108.665 83.7537 108.525C83.6306 108.386 83.4629 108.27 83.2506 108.178C83.0406 108.086 82.8029 108.005 82.5375 107.935L81.6616 107.697C81.068 107.535 80.5975 107.297 80.25 106.984C79.9049 106.67 79.7324 106.255 79.7324 105.738C79.7324 105.311 79.8482 104.939 80.0799 104.62C80.3115 104.301 80.6252 104.054 81.0209 103.878C81.4167 103.699 81.8631 103.61 82.3602 103.61C82.8621 103.61 83.3048 103.698 83.6885 103.874C84.0746 104.051 84.3786 104.293 84.6006 104.602C84.8226 104.908 84.9384 105.261 84.9481 105.659H83.8695Z" fill="white"/>
<defs>
<clipPath id="clip0_4111_39191">
<rect width="33.1257" height="40.1331" fill="white" transform="translate(32.8073 10.4365)"/>
</clipPath>
</defs>
</svg>
