<svg width="12" height="10" viewBox="0 0 12 10" fill="#FF9D28" xmlns="http://www.w3.org/2000/svg">
	<path d="M6.10306 0.52722C6.43414 0.52722 6.75961 0.680518 6.93356 0.982166L7.85385 2.62392C7.98853 2.86623 8.24666 3.02942 8.54968 3.06898L10.6035 3.33107C11.361 3.42997 11.6641 4.25085 11.1141 4.72063L9.62709 5.99645C9.40824 6.18436 9.31285 6.4514 9.36335 6.71843L9.71687 8.52337C9.81788 9.04755 9.34652 9.47777 8.80781 9.47777C8.66752 9.47777 8.52162 9.4481 8.37572 9.38381L6.54076 8.53327C6.40608 8.46898 6.26019 8.43931 6.10868 8.43931C5.96278 8.43931 5.81126 8.46898 5.67659 8.53327L3.84162 9.38381C3.70134 9.4481 3.55543 9.47777 3.40954 9.47777C2.87083 9.47777 2.39947 9.05249 2.50047 8.52337L2.854 6.71843C2.9045 6.45634 2.80349 6.18436 2.59026 5.99645L1.1032 4.72063C0.553276 4.25085 0.8563 3.42997 1.61385 3.33107L3.66766 3.06898C3.97069 3.02942 4.22882 2.86623 4.36349 2.62392L5.28378 0.982166C5.44652 0.680518 5.77198 0.52722 6.10306 0.52722ZM6.10306 0.0327148C5.5363 0.0327148 5.02565 0.314583 4.77313 0.764583L3.85285 2.40634C3.80234 2.5003 3.69572 2.56458 3.57788 2.57942L1.52407 2.84151C0.962917 2.91568 0.502773 3.25689 0.323205 3.73162C0.149248 4.20634 0.289535 4.72063 0.699175 5.07173L2.18623 6.34755C2.2704 6.42173 2.30968 6.52557 2.29285 6.62942L1.93932 8.43436C1.86637 8.81513 1.98421 9.20085 2.26479 9.49755C2.55097 9.79425 2.96623 9.96733 3.40392 9.96733C3.64522 9.96733 3.87529 9.91788 4.09414 9.81403L5.9291 8.96348C5.97961 8.93876 6.04133 8.92887 6.09745 8.92887C6.15356 8.92887 6.21529 8.9437 6.2658 8.96348L8.10076 9.81403C8.31961 9.91293 8.54968 9.96733 8.79098 9.96733C9.22867 9.96733 9.64393 9.79425 9.93011 9.49755C10.2107 9.20579 10.3285 8.81513 10.2556 8.43436L9.90767 6.62942C9.88522 6.52557 9.9245 6.42173 10.0143 6.34755L11.5013 5.07173C11.911 4.72063 12.0513 4.20634 11.8773 3.73162C11.7034 3.25689 11.2432 2.91568 10.6764 2.84151L8.62263 2.57942C8.50479 2.56458 8.40378 2.5003 8.34767 2.40634L7.42738 0.764583C7.18047 0.314583 6.66983 0.0327148 6.10306 0.0327148Z" fill="#FF9D28"/>
	<path d="M8.80254 9.72002C8.60613 9.72002 8.42095 9.68046 8.24138 9.59639L6.40642 8.74584C6.31664 8.70134 6.21002 8.68155 6.10901 8.68155C6.00801 8.68155 5.90138 8.70628 5.8116 8.74584L3.97102 9.59639C3.79146 9.68046 3.60628 9.72002 3.40987 9.72002C3.05635 9.72002 2.71966 9.58156 2.48397 9.33925C2.2539 9.09694 2.15851 8.79035 2.22024 8.47881L2.56815 6.67386C2.60182 6.4909 2.53448 6.30298 2.38297 6.17441L0.895918 4.89859C0.564839 4.61672 0.446997 4.19639 0.592896 3.81068C0.733184 3.42496 1.10915 3.14804 1.56369 3.0887L3.6175 2.82661C3.82513 2.80189 4.01031 2.6832 4.10009 2.51507L5.02038 0.873314C5.22239 0.50738 5.63764 0.279907 6.09779 0.279907C6.55793 0.279907 6.97318 0.50738 7.1752 0.873314L8.09548 2.51507C8.19088 2.6832 8.37045 2.79694 8.57807 2.82661L10.6319 3.0887C11.0864 3.14804 11.4624 3.42496 11.6027 3.81068C11.743 4.19639 11.6307 4.61672 11.2997 4.89859L9.81261 6.17441C9.6611 6.30298 9.59376 6.4909 9.62743 6.67386L9.98095 8.47881C10.0427 8.79529 9.94728 9.09694 9.71721 9.33925C9.49275 9.58156 9.15606 9.72002 8.80254 9.72002Z" fill="#FF9D28"/>
</svg>

