<svg width="13" height="12" viewBox="0 0 13 12" fill="none" xmlns="http://www.w3.org/2000/svg">
	<path d="M6.49671 1.2749C6.1488 1.2749 5.80089 1.43314 5.62132 1.75457L4.65053 3.49029C4.51024 3.74248 4.23527 3.92051 3.91541 3.96007L1.74376 4.23699C0.941315 4.34084 0.621464 5.20622 1.20506 5.70567L2.77628 7.05567C3.00635 7.25347 3.11297 7.54029 3.05685 7.81721L2.6865 9.72106C2.55182 10.4233 3.38793 10.9573 4.10059 10.626L6.04218 9.726C6.18247 9.66172 6.33959 9.6271 6.49671 9.6271" fill="#FF9D28"/>
	<path d="M6.49671 1.2749C6.1488 1.2749 5.80089 1.43314 5.62132 1.75457L4.65053 3.49029C4.51024 3.74248 4.23527 3.92051 3.91541 3.96007L1.74376 4.23699C0.941315 4.34084 0.621464 5.20622 1.20506 5.70567L2.77628 7.05567C3.00635 7.25347 3.11297 7.54029 3.05685 7.81721L2.6865 9.72106C2.55182 10.4233 3.38793 10.9573 4.10059 10.626L6.04218 9.726C6.18247 9.66172 6.33959 9.6271 6.49671 9.6271" stroke="#FF9D28" stroke-width="1.0568" stroke-miterlimit="10"/>
	<path d="M6.49219 9.6271C6.64931 9.6271 6.80643 9.66172 6.94672 9.726L8.88831 10.626C9.60658 10.9573 10.4427 10.4233 10.3024 9.72106L9.93205 7.81721C9.87593 7.54029 9.98255 7.25347 10.2126 7.05567L11.7838 5.70567C12.3618 5.20622 12.042 4.34084 11.2451 4.23699L9.07349 3.96007C8.75363 3.92051 8.47866 3.74248 8.33837 3.49029L7.36758 1.75457C7.18801 1.43314 6.8401 1.2749 6.49219 1.2749" stroke="#FF9D28" stroke-width="1.0568" stroke-miterlimit="10"/>
</svg>
