<svg width="151" height="64" viewBox="0 0 151 64" fill="none" xmlns="http://www.w3.org/2000/svg">
<path d="M3.674 11.1441C3.674 10.7775 2.67123 9.83694 2.35837 9.83694H1.5V9.00001H6.49779L11.656 21.8567H11.7603L17.1833 9.00001H21.6516V9.83694H20.8494C20.5365 9.83694 19.5337 10.7775 19.5337 11.1441V23.953C19.5337 24.3196 20.5365 25.2602 20.8494 25.2602H21.6516V26.1051H15.0414V25.2602H15.8837C16.1965 25.2602 17.1993 24.3196 17.1993 23.953V11.5108L10.934 26.3522L4.70885 11.2477V23.8972C4.70885 24.2639 5.71162 25.2044 6.02448 25.2044H6.8668V26.0413H1.5V25.2044H2.30221C2.61508 25.2044 3.61784 24.2639 3.61784 23.8972L3.674 11.1441Z" fill="#D3D3DD"/>
<path d="M28.8801 18.7723C29.1929 17.0507 28.8801 15.5362 26.9788 15.5362C24.7727 15.5362 23.6657 17.3137 23.6657 19.8723C23.6657 22.4309 25.2701 24.3678 27.773 24.3678C28.4948 24.4418 29.222 24.2905 29.8532 23.9347C30.4844 23.579 30.9883 23.0366 31.2947 22.3831H31.9846C31.2466 24.7743 29.7705 26.3046 26.9788 26.3046C23.8823 26.3046 21.8767 23.7142 21.8767 20.5259C21.8767 16.971 24.2433 14.6196 27.1954 14.6196C27.9304 14.5838 28.6645 14.7079 29.3462 14.9833C30.0279 15.2586 30.6409 15.6786 31.1423 16.2138L29.5379 18.7245L28.8801 18.7723Z" fill="#D3D3DD"/>
<path d="M51.3416 12.3954C51.531 12.3987 51.7191 12.3637 51.8945 12.2925C52.0699 12.2213 52.2289 12.1153 52.3617 11.9811C52.4946 11.8469 52.5985 11.6872 52.6673 11.5117C52.736 11.3363 52.768 11.1488 52.7615 10.9607C52.7719 10.7727 52.7423 10.5846 52.6747 10.4087C52.607 10.2329 52.5028 10.0731 52.3688 9.94001C52.2348 9.80688 52.074 9.70332 51.897 9.63609C51.72 9.56886 51.5308 9.53947 51.3416 9.54984C51.1423 9.5351 50.9422 9.56136 50.7537 9.62698C50.5651 9.6926 50.3923 9.79617 50.2458 9.9312C50.0994 10.0662 49.9826 10.2298 49.9028 10.4118C49.8229 10.5937 49.7817 10.7901 49.7817 10.9885C49.7817 11.187 49.8229 11.3834 49.9028 11.5653C49.9826 11.7473 50.0994 11.9109 50.2458 12.0459C50.3923 12.1809 50.5651 12.2845 50.7537 12.3501C50.9422 12.4157 51.1423 12.442 51.3416 12.4273V12.3954Z" fill="#D3D3DD"/>
<path d="M67.1293 25.2044C66.8165 25.2044 65.918 24.4073 65.918 24.0566V17.8873C65.9369 17.4746 65.87 17.0625 65.7214 16.6767C65.5728 16.2909 65.3457 15.9397 65.0544 15.645C64.7631 15.3503 64.4137 15.1184 64.0281 14.9639C63.6425 14.8093 63.229 14.7355 62.8134 14.7469C60.8159 14.7469 59.765 15.9026 58.4494 17.2576L58.0242 14.9461H54.5025V15.7432H55.1844C55.4972 15.7432 56.3957 16.5801 56.3957 16.8989V23.953C56.3957 24.3196 55.4972 25.1008 55.1844 25.1008H53.8206C53.4997 25.1008 52.6093 24.3037 52.6093 23.953V14.9461H48.5982V15.7432H49.2801C49.601 15.7432 50.4914 16.5801 50.4914 16.8989V23.953C50.4914 24.3196 49.601 25.1008 49.2801 25.1008H48.0286C47.2585 24.7779 46.5605 24.3065 45.975 23.7139L40.0065 15.8468L44.162 11.3992C44.802 10.7484 45.5478 10.2095 46.3681 9.80504H47.1703V9H40.9611V9.83692H41.8035C42.1163 9.83692 43.1191 10.9847 42.8544 11.2956L36.7174 18.1344V11.1441C36.7174 10.7775 37.7122 9.83692 38.0331 9.83692H38.8353V9H32.193V9.83692H32.9952C33.308 9.83692 34.3108 10.7775 34.3108 11.1441V23.953C34.3108 24.3196 33.308 25.2602 32.9952 25.2602H32.193V26.1051H38.8754V25.2602H38.0732C37.7523 25.2602 36.7575 24.3196 36.7575 23.953V19.4575L38.4903 17.5685L44.3946 26.1051H60.3426V25.2602H59.7089C59.396 25.2602 58.4975 24.4631 58.4975 24.1044V18.4054C58.4975 17.6801 60.5512 16.1098 62.1315 16.1098C62.379 16.0968 62.6263 16.1374 62.8564 16.2288C63.0865 16.3202 63.2938 16.4602 63.464 16.6392C63.6342 16.8181 63.7632 17.0317 63.842 17.2651C63.9208 17.4985 63.9476 17.7462 63.9205 17.9909V24.0566C63.9205 24.4232 63.022 25.2044 62.7091 25.2044H62.0754V26.0413H67.7631V25.2044H67.1293Z" fill="#D3D3DD"/>
<path d="M69.183 22.1758C69.183 23.2199 70.7072 25.4119 73.0737 25.4119C74.4455 25.4119 75.2317 24.9416 75.2317 23.8975C75.2317 22.6461 74.1246 22.2236 73.1299 21.8091C72.3277 21.4903 71.71 21.2352 70.8115 20.8128C69.4477 20.1831 68.4048 19.2984 68.4048 17.7839C68.4048 15.7913 69.6162 14.6435 71.7741 14.6435C72.9855 14.6435 73.6674 15.2174 74.5097 15.2174C74.8225 15.2174 75.0311 15.1696 75.1354 14.9065H75.7692V18.302H75.0873C74.934 17.5162 74.5176 16.8049 73.9059 16.284C73.2942 15.763 72.5231 15.4629 71.718 15.4326C70.4023 15.4326 69.8248 16.0065 69.8248 16.8912C69.8248 17.776 70.5066 18.1984 71.6137 18.6687C72.456 19.0353 73.0898 19.2984 74.0203 19.665C75.2317 20.1353 76.5954 21.0758 76.5954 22.8533C76.5954 24.9416 75.1194 26.201 73.0176 26.201C71.5977 26.201 70.7553 25.5155 69.8087 25.5155C69.6483 25.4981 69.4861 25.5228 69.3383 25.5871C69.1905 25.6514 69.0623 25.7532 68.9664 25.8822H68.4369V22.0164H69.1268L69.183 22.1758Z" fill="#D3D3DD"/>
<path d="M77.3335 20.5256C77.3335 17.2337 79.5957 14.6671 82.4436 14.7229C82.9654 14.7036 83.4858 14.7894 83.9733 14.9753C84.4609 15.1611 84.9054 15.4432 85.2803 15.8045C85.6551 16.1657 85.9524 16.5987 86.1542 17.0772C86.3561 17.5557 86.4583 18.0699 86.4547 18.5887L86.5028 19.3858L79.0823 19.9676C79.0823 22.2154 80.6867 24.4073 83.1335 24.4073C83.8482 24.4758 84.5667 24.3215 85.1891 23.9659C85.8116 23.6102 86.3072 23.0708 86.6071 22.4226H87.3371C86.599 24.8138 85.2273 26.3442 82.5238 26.3442C79.3872 26.3043 77.3335 23.6342 77.3335 20.5256ZM84.6497 18.7481C84.8582 17.154 84.5935 15.6077 82.3874 15.6077C80.1813 15.6077 79.1786 17.4888 79.0743 19.2184L84.6497 18.7481Z" fill="#D3D3DD"/>
<path d="M88.4923 17.0506C88.143 16.5103 87.6521 16.0749 87.0723 15.7912H86.599V14.9463H92.4873V15.7434H91.8054C91.4925 15.7434 90.8026 16.5405 90.8026 16.947L93.3858 22.917L95.9127 17.0107C95.863 16.7496 95.7511 16.5042 95.5864 16.2948C95.4218 16.0854 95.2091 15.9182 94.9661 15.8072H94.2762V14.9463H98.7526V15.7434H98.2231C97.9584 15.7434 97.1722 16.5803 96.9075 16.947L93.121 25.4676L90.3293 31.5891L89.3346 31.1188L92.2787 25.0531L88.4923 17.0506Z" fill="#D3D3DD"/>
<path d="M34.6639 34.873C34.701 35.5639 34.9521 36.2266 35.383 36.7703C35.8138 37.3139 36.4032 37.7119 37.0705 37.9098C39.2766 40.2612 41.964 42.7719 44.2905 44.8602C44.9399 43.7703 45.2524 42.5146 45.1889 41.2495C45.1889 39.6554 44.138 38.7388 42.4534 38.683V37.8859H48.5582V38.683H47.8683C47.1652 39.1041 46.6276 39.7507 46.3441 40.5162C46.3295 42.2177 45.8197 43.8787 44.8761 45.2986C45.9802 46.282 47.137 47.2053 48.3416 48.0644H49.4006V48.8615H47.4993C46.7064 48.8842 45.9173 48.7452 45.1805 48.4532C44.4438 48.1612 43.775 47.7224 43.2155 47.1638C42.4686 47.8668 41.5857 48.4117 40.6204 48.7652C39.655 49.1187 38.6274 49.2735 37.6 49.2202C36.2118 49.2675 34.8615 48.7651 33.8461 47.8234C32.8306 46.8818 32.2332 45.5779 32.1851 44.1987C32.1829 43.1803 32.431 42.1769 32.9077 41.2754C33.3844 40.3739 34.0754 39.6017 34.9206 39.0257C34.0448 38.0416 33.57 36.7683 33.5889 35.4548C33.5889 32.9919 35.1934 31.6369 37.6963 31.6369C39.3007 31.6369 40.1029 32.155 40.849 32.155C41.218 32.155 41.4827 32.155 41.6512 31.8441H42.3892V35.8295H41.6111C41.6111 34.6817 39.9264 32.3782 37.6 32.3782C35.771 32.418 34.6639 33.2789 34.6639 34.873ZM33.9259 43.035C33.9259 45.4899 36.5571 47.8174 38.9798 47.8174C40.3191 47.8538 41.633 47.4504 42.7181 46.6696C40.1022 44.4141 37.6243 42.0053 35.2976 39.4561C34.8258 39.9213 34.4593 40.4811 34.2227 41.0983C33.9861 41.7155 33.8849 42.3758 33.9259 43.035Z" fill="#D3D3DD"/>
<path d="M66.9691 37.8536C66.9691 36.0761 64.9715 32.5212 61.7627 32.5212C58.8186 32.5212 57.0296 34.1153 56.7088 38.013C56.6232 39.4578 56.6419 40.9069 56.7649 42.349C56.8214 43.8368 57.4665 45.2423 58.56 46.2601C59.6536 47.278 61.1072 47.826 62.605 47.785C65.5491 47.785 67.0252 46.5336 68.1323 44.2859H69.0227C68.5613 45.7409 67.6314 47.005 66.3761 47.8835C65.1209 48.762 63.6098 49.2063 62.0756 49.148C57.1339 49.148 53.9732 45.1627 53.9732 40.2607C53.9732 35.3587 56.8692 31.493 61.6584 31.493C63.4955 31.493 64.6587 32.2263 65.9743 32.2263C66.1751 32.2415 66.3765 32.2064 66.5601 32.1243C66.7437 32.0421 66.9036 31.9155 67.0252 31.756H67.659V37.8217H66.9691V37.8536Z" fill="#D3D3DD"/>
<path d="M70.1775 43.3457C70.1775 39.735 72.7606 37.4873 75.7047 37.4873C78.6488 37.4873 81.232 39.735 81.232 43.3457C81.232 46.9564 78.6488 49.2201 75.7047 49.2201C74.9491 49.2093 74.2034 49.0472 73.5123 48.7433C72.8213 48.4394 72.1991 48 71.683 47.4515C71.1669 46.903 70.7675 46.2566 70.5089 45.5511C70.2502 44.8456 70.1374 44.0955 70.1775 43.3457ZM79.0018 45.179C79.1622 43.9273 79.1622 42.6605 79.0018 41.4088C78.7932 39.6314 77.7905 38.4278 75.7448 38.4278C73.6992 38.4278 72.7446 39.6314 72.4798 41.361C72.3194 42.61 72.3194 43.8742 72.4798 45.1232C72.7446 46.8448 73.6912 48.1042 75.7448 48.1042C77.7985 48.1042 78.8093 46.9006 79.0179 45.179H79.0018Z" fill="#D3D3DD"/>
<path d="M99.3706 46.8289C99.3706 47.1955 100.213 47.9846 100.526 47.9846H101.055V48.7817H95.4397V47.9846H96.0654C96.3863 47.9846 97.2287 47.1876 97.2287 46.8289V40.7313C97.2665 40.491 97.2486 40.2452 97.1761 40.0128C97.1036 39.7805 96.9786 39.5676 96.8105 39.3907C96.6425 39.2137 96.436 39.0774 96.2067 38.992C95.9774 38.9066 95.7315 38.8745 95.4879 38.8981C94.0198 38.8981 92.2309 40.3168 92.2309 41.0422V46.8289C92.2309 47.1955 93.0331 47.9846 93.3861 47.9846H94.0198V48.7817H88.3321V47.9846H88.9418C89.2547 47.9846 90.097 47.1876 90.097 46.8289V40.7313C90.1267 40.4883 90.1013 40.2418 90.0228 40.0098C89.9442 39.7778 89.8144 39.5662 89.6429 39.3904C89.4714 39.2147 89.2626 39.0793 89.0316 38.9941C88.8006 38.9089 88.5534 38.8761 88.3081 38.8981C86.832 38.8981 85.043 40.3647 85.043 41.1458V46.9006C85.043 47.2673 85.8854 48.0484 86.2063 48.0484H86.832V48.8455H81.1523V48.0484H81.7861C82.0989 48.0484 82.9412 47.2513 82.9412 46.9006V39.7908C82.9412 39.4241 82.0989 38.643 81.7861 38.643H81.1523V37.8459H84.5697L85.043 39.99C86.3105 38.6271 87.1529 37.5988 89.1022 37.5988C89.8093 37.5403 90.5115 37.7569 91.0608 38.2031C91.6101 38.6492 91.9635 39.2899 92.0464 39.99C93.4101 38.6271 94.3086 37.6865 96.1457 37.6865C96.5599 37.6722 96.9725 37.7444 97.3569 37.8986C97.7412 38.0527 98.0887 38.2853 98.3768 38.5814C98.6649 38.8774 98.8873 39.2303 99.0295 39.6171C99.1716 40.0039 99.2304 40.4161 99.2021 40.827V46.8289H99.3706Z" fill="#D3D3DD"/>
<path d="M104.328 37.8062L104.697 40.054C105.031 39.2688 105.597 38.603 106.321 38.1447C107.044 37.6864 107.891 37.4572 108.748 37.4874C111.483 37.4874 113.112 39.7351 113.112 43.1386C113.112 46.5421 111.219 49.0927 108.539 49.0927C107.757 49.1625 106.973 48.989 106.295 48.5963C105.616 48.2036 105.077 47.6111 104.753 46.9008V52.1773C104.753 52.544 105.643 53.3331 105.908 53.3331H106.646V54.1302H100.75V53.3331H101.488C101.801 53.3331 102.643 52.536 102.643 52.1773V39.7909C102.643 39.4243 101.801 38.6431 101.488 38.6431H100.75V37.8461L104.328 37.8062ZM104.697 41.7916V44.7567C104.697 45.6022 105.035 46.4132 105.637 47.0111C106.238 47.609 107.055 47.9449 107.906 47.9449C109.799 47.9449 110.697 46.7414 110.954 45.0197C111.114 43.9282 111.114 42.8193 110.954 41.7278C110.745 39.9503 109.751 38.8504 108.17 38.8504C106.277 38.7946 105.226 40.1018 104.697 41.8314V41.7916Z" fill="#D3D3DD"/>
<path d="M137.315 48.0483C137.002 48.0483 136.112 47.2512 136.112 46.9005V40.7312C136.13 40.3189 136.062 39.9073 135.913 39.522C135.764 39.1367 135.537 38.786 135.246 38.4915C134.954 38.1971 134.606 37.9652 134.221 37.8102C133.835 37.6553 133.423 37.5806 133.007 37.5908C131.002 37.5908 129.951 38.7465 128.635 40.1016L128.25 37.8538H124.72V38.6509H125.41C125.723 38.6509 126.614 39.4878 126.614 39.8066V46.8288C126.614 47.1954 125.723 47.9845 125.41 47.9845H124.038C123.726 47.9845 122.827 47.1875 122.827 46.8288V40.8349C122.827 38.6429 121.038 37.543 118.672 37.543C117.846 37.4907 117.018 37.6176 116.247 37.9149C115.475 38.2122 114.778 38.6728 114.203 39.2646L115.671 41.5124H116.474C115.631 39.6313 116.257 38.3799 118.15 38.3799C120.043 38.3799 120.782 39.2646 120.782 40.8349V42.1978L117.894 42.7717C116.289 43.0826 114.26 43.8717 114.26 46.0636C114.241 46.4489 114.301 46.8338 114.434 47.1959C114.568 47.558 114.773 47.8899 115.038 48.1721C115.302 48.4543 115.621 48.6811 115.975 48.8392C116.329 48.9972 116.711 49.0833 117.099 49.0925C118.704 49.0925 119.939 47.7853 120.838 46.6375L121.102 48.8852H130.569V48.0882H129.943C129.622 48.0882 128.731 47.2911 128.731 46.9404V41.2015C128.731 40.4682 130.785 38.898 132.357 38.898C132.605 38.8862 132.853 38.9278 133.083 39.0202C133.313 39.1125 133.52 39.2533 133.69 39.4329C133.86 39.6124 133.989 39.8264 134.068 40.0602C134.146 40.294 134.173 40.542 134.146 40.787V46.8288C134.146 47.1954 133.256 47.9845 132.943 47.9845H132.261V48.7816H137.941V47.9845H137.307L137.315 48.0483ZM120.741 45.6571C120.268 46.4542 119.137 47.586 118.006 47.586C117.769 47.5915 117.533 47.549 117.313 47.4611C117.093 47.3733 116.893 47.2418 116.726 47.0748C116.558 46.9078 116.427 46.7087 116.34 46.4897C116.252 46.2706 116.21 46.0362 116.217 45.8006C116.217 44.7006 116.69 43.9753 118.062 43.6086L120.741 42.9232V45.6571Z" fill="#D3D3DD"/>
<path d="M138.679 39.8946C138.329 39.3565 137.838 38.9237 137.259 38.6432H136.786V37.8462H142.69V38.6432H142.008C141.695 38.6432 141.013 39.4403 141.013 39.8468L143.588 45.7531L146.115 39.8468C146.072 39.5835 145.962 39.3353 145.797 39.125C145.631 38.9147 145.415 38.7491 145.169 38.6432H144.479V37.8462H148.955V38.6432H148.426C148.169 38.6432 147.375 39.4802 147.11 39.8468L143.324 48.3675L140.54 54.481L139.529 54.0027L142.473 47.937L138.679 39.8946Z" fill="#D3D3DD"/>
</svg>
