<svg width="100" height="64" viewBox="0 0 100 64" fill="none" xmlns="http://www.w3.org/2000/svg">
<path d="M49.628 1C22.7736 1 1 15.0854 1 32.4558C1 49.8325 22.7736 63.9243 49.628 63.9243C76.4823 63.9243 98.2559 49.8389 98.2559 32.4558C98.2559 15.0726 76.4823 1 49.628 1ZM49.628 50.4204C45.6337 50.4204 42.3744 42.5533 42.1698 32.6539C44.5728 32.8648 47.0716 32.9798 49.628 32.9798C52.1843 32.9798 54.6831 32.8648 57.0861 32.6539C56.8816 42.5469 53.6222 50.4204 49.628 50.4204ZM42.6619 24.7931C43.7484 17.7951 46.4581 12.8295 49.628 12.8295C52.7978 12.8295 55.5075 17.7951 56.594 24.7931C54.3636 24.9912 52.0373 25.0999 49.628 25.0999C47.2186 25.0999 44.8923 24.9912 42.6619 24.7931ZM49.628 5.55028C44.413 5.55028 39.965 13.3599 38.3226 24.2627C28.4359 22.7225 21.5338 19.2075 21.5338 15.1238C21.5338 9.61486 34.111 5.14766 49.628 5.14766C65.1449 5.14766 77.7221 9.61486 77.7221 15.1238C77.7221 19.2075 70.82 22.7225 60.9334 24.2627C59.2909 13.3599 54.8429 5.55028 49.628 5.55028ZM7.97241 31.2798C7.97241 25.9499 10.0239 20.9458 13.5964 16.6512C13.558 16.9516 13.5325 17.2583 13.5325 17.5651C13.5325 24.2819 23.6044 30.0081 37.6579 32.117C37.6451 32.6027 37.6451 33.0948 37.6451 33.5869C37.6451 46.1066 41.1537 56.709 46.0044 60.3071C24.6909 59.0225 7.97241 46.5156 7.97241 31.2798ZM53.2516 60.3071C58.1022 56.709 61.6108 46.1066 61.6108 33.5869C61.6108 33.0884 61.6044 32.6027 61.598 32.117C75.6451 30.0081 85.7235 24.2883 85.7235 17.5651C85.7235 17.2583 85.6979 16.9516 85.6596 16.6512C89.232 20.9586 91.2835 25.9499 91.2835 31.2798C91.2835 46.5156 74.5651 59.0225 53.2516 60.3071Z" fill="#D3D3DD"/>
</svg>
