<svg width="200" height="64" viewBox="0 0 200 64" fill="none" xmlns="http://www.w3.org/2000/svg">
<path fill-rule="evenodd" clip-rule="evenodd" d="M186.696 1.91692L186.746 1.86707L186.671 1.79014C186.016 1.12166 184.586 0 182.36 0C180.662 0 179.092 0.675575 177.938 1.90252C176.86 3.04933 176.242 4.58591 176.242 6.11842C176.242 8.7584 177.87 10.3272 178.566 10.997C178.628 11.0574 178.677 11.1057 178.72 11.1485L177.909 11.9526L176.551 13.3011C175.293 14.559 174.511 16.5017 174.511 18.3712C174.511 20.18 175.222 21.8472 176.568 23.1926C178.455 25.0798 180.527 25.3388 181.933 25.2236C183.612 25.0861 185.297 24.3205 186.442 23.1756L186.442 23.1753C187.471 22.1471 188.05 21.5676 188.61 21.0232L191.991 24.4036L192.041 24.4541L192.092 24.4034L194.518 21.96L194.568 21.9098L194.518 21.8595L191.138 18.4799L193.539 16.0909L193.59 16.0408L193.54 15.9903L191.101 13.5384L191.05 13.4879L191 13.5381L188.598 15.9398C188.598 15.9398 181.484 8.81169 180.607 7.92296C180.131 7.44142 179.84 6.93302 179.84 6.1311C179.84 5.27739 180.227 4.71119 180.551 4.38651C181.03 3.90776 181.723 3.61059 182.36 3.61059C183.339 3.61059 183.939 4.12822 184.151 4.35062L184.201 4.40327L184.253 4.35191L185.698 2.91137L186.696 1.91692ZM181.259 13.7057L186.071 18.4676C185.849 18.6924 184.912 19.6376 183.886 20.6523C182.653 21.8717 180.597 22.1257 179.107 20.6358C178.456 19.9838 178.111 19.1709 178.111 18.285C178.111 17.3892 178.483 16.4817 179.107 15.858L181.259 13.7057ZM159.117 43.1521C160.26 45.1651 160.864 47.4598 160.864 49.788C160.864 53.3852 159.463 56.7674 156.919 59.3111C154.375 61.8549 150.993 63.2556 147.396 63.2556H140.868H140.797V63.1845V0.935382V0.864258H140.868L145.213 0.867696C150.542 0.867696 155.551 2.94298 159.32 6.71107C163.088 10.4792 165.163 15.489 165.163 20.8178C165.163 28.2038 161.121 34.9363 154.608 38.4192C156.47 39.6028 158.028 41.2354 159.117 43.1521ZM156.163 31.7681C159.088 28.8432 160.699 24.9542 160.699 20.8178C160.699 16.6814 159.088 12.7923 156.163 9.86741C153.255 6.95926 149.394 5.35176 145.284 5.33328V36.3023C149.394 36.2838 153.255 34.6763 156.163 31.7681ZM145.284 58.792H147.396C152.361 58.792 156.4 54.7527 156.4 49.788C156.4 47.3831 155.463 45.1219 153.763 43.4212C152.062 41.7206 149.801 40.784 147.396 40.784L145.284 40.7717V58.792ZM182.411 63.238C187.048 63.238 191.406 61.4326 194.685 58.1542C197.963 54.8758 199.769 50.5171 199.769 45.8809C199.769 41.2447 197.963 36.8861 194.685 33.6077C191.406 30.3293 187.048 28.5239 182.411 28.5239C177.775 28.5239 173.416 30.3293 170.138 33.6077C166.86 36.8861 165.054 41.2447 165.054 45.8809C165.054 50.5171 166.86 54.8758 170.138 58.1542C173.416 61.4326 177.775 63.238 182.411 63.238ZM169.518 45.8809C169.518 42.437 170.859 39.1992 173.294 36.764C175.73 34.3288 178.968 32.9876 182.411 32.9876C185.855 32.9876 189.093 34.3288 191.528 36.764C193.963 39.1992 195.305 42.437 195.305 45.8809C195.305 52.9903 189.521 58.7742 182.411 58.7742C178.968 58.7742 175.73 57.4331 173.294 54.9979C170.859 52.5627 169.518 49.3247 169.518 45.8809ZM1 53.188H3.71519C5.79843 53.188 7.2351 53.8631 7.2351 55.7164C7.2351 57.0957 6.4306 57.7853 5.16626 58.1014V58.1302C6.53116 58.2449 7.4936 59.1358 7.4936 60.5437C7.4936 62.6987 5.71226 63.2159 3.67222 63.2159H1V53.188ZM2.43646 62.0379H3.51407C4.80698 62.0379 5.97076 61.7648 5.97076 60.4145C5.97076 58.8629 4.60607 58.6474 3.37053 58.6474H2.43646V62.0379ZM2.43646 57.4692H3.22677C4.62025 57.4692 5.79843 57.3399 5.79843 55.8602C5.79843 54.6676 4.7784 54.3659 3.94511 54.3659H2.43646V57.4692ZM14.7948 53.188H13.2863L9.00488 63.2159H10.5135L11.5336 60.6874H16.4469L17.467 63.2159H19.033L14.7948 53.188ZM11.9932 59.5093L13.9903 54.5385L15.9871 59.5093H11.9932ZM21.2305 53.188H23.1841L27.6093 61.262H27.6379V53.188H29.0746V63.2159H27.2356L22.6957 54.9693H22.6671V63.2159H21.2305V53.188ZM37.1638 54.2795C38.4567 54.2795 39.2182 54.5094 39.9221 54.969L40.0371 53.5182C39.2038 53.2307 38.5572 53.0151 37.092 53.0151C34.0319 53.0151 31.7905 55.0696 31.7905 58.1587C31.7905 61.3479 33.9026 63.3881 37.0776 63.3881C38.6436 63.3881 39.5917 63.1294 40.1377 62.9427V57.7276H36.5892V58.9056H38.701V61.9515C38.6427 61.9631 38.587 61.9755 38.5304 61.9881C38.2386 62.0532 37.9222 62.1238 37.092 62.1238C35.0087 62.1238 33.3134 60.5578 33.3134 58.2016C33.3134 55.9605 34.8506 54.2795 37.1638 54.2795ZM65.2511 53.0151C68.2969 53.0151 70.0785 55.2277 70.0785 58.2016C70.0785 61.2473 68.3113 63.3881 65.2511 63.3881C62.191 63.3881 60.4238 61.2473 60.4238 58.2016C60.4238 55.2277 62.2054 53.0151 65.2511 53.0151ZM65.2511 62.1238C67.5642 62.1238 68.5554 60.1987 68.5554 58.2016C68.5554 56.1616 67.4636 54.2651 65.2511 54.2795C63.0387 54.2651 61.9469 56.1616 61.9469 58.2016C61.9469 60.1987 62.9381 62.1238 65.2511 62.1238ZM74.3751 53.188H72.9385V63.2159H78.5704V61.9518H74.3751V53.188ZM88.2489 59.064C88.2489 61.8798 86.8264 63.3884 84.3553 63.3884C81.8842 63.3884 80.4619 61.8798 80.4619 59.064V53.188H81.8986V58.8771C81.8986 60.8024 82.5022 62.1241 84.3553 62.1241C86.2086 62.1241 86.812 60.8024 86.812 58.8771V53.188H88.2489V59.064ZM97.0454 53.188H91.7153V63.2159H93.152V58.6474H96.873V57.383H93.152V54.4521H97.0454V53.188ZM105.047 54.6961C104.315 54.4088 103.912 54.2795 103.165 54.2795C102.361 54.2795 101.412 54.5668 101.412 55.6156C101.412 56.4489 102.22 56.8381 103.136 57.2795C104.336 57.8578 105.722 58.5258 105.722 60.3998C105.722 62.5404 104.07 63.3881 102.059 63.3881C101.355 63.3881 100.665 63.187 100.005 62.9715L100.148 61.6354C100.637 61.8365 101.499 62.1238 102.231 62.1238C103.05 62.1238 104.2 61.664 104.2 60.486C104.2 59.4575 103.292 59.0311 102.31 58.5696C101.152 58.0252 99.8896 57.4321 99.8896 55.7449C99.8896 53.9634 101.298 53.0151 103.108 53.0151C103.769 53.0151 104.559 53.1301 105.248 53.3744L105.047 54.6961ZM114.605 53.188H108.987V63.2159H114.605V61.9518H110.424V58.6474H114.231V57.383H110.424V54.4521H114.605V53.188ZM117.926 53.188H119.88L124.305 61.262H124.334V53.188H125.771V63.2159H123.932L119.392 54.9693H119.363V63.2159H117.926V53.188ZM53.0741 61.6484L54.494 63.0683L55.4985 62.0569L54.0786 60.6367L55.0937 59.627L54.0838 58.6119L53.0687 59.627C53.0687 59.627 50.2184 56.7659 49.7396 56.2874L49.7393 56.2871C49.7012 56.2488 49.4136 55.9595 49.4136 55.5248C49.4136 54.8323 50.0166 54.4519 50.4865 54.4519C50.8862 54.4519 51.1387 54.6518 51.2491 54.7674C51.3053 54.7112 51.5281 54.4893 51.7508 54.2674C51.9868 54.0323 52.2227 53.7973 52.2605 53.7594C52.2577 53.7565 52.2541 53.7528 52.2497 53.7484C52.1373 53.6335 51.5329 53.0161 50.4865 53.0161C48.9998 53.0161 47.983 54.2572 47.983 55.5194C47.983 56.6 48.6593 57.2517 48.9359 57.5181C48.9717 57.5526 49.0008 57.5806 49.0208 57.6022C48.9296 57.6935 48.8009 57.8208 48.6572 57.9629C48.4809 58.1374 48.282 58.3341 48.1022 58.5138C47.2608 59.3552 46.7419 61.1995 48.1093 62.567C49.4568 63.9145 51.2743 63.4413 52.1555 62.5599L52.1566 62.5588C52.6011 62.1143 52.8358 61.8796 53.0741 61.6484ZM49.119 59.5306L50.0306 58.619L52.0644 60.6316C52.0644 60.6316 51.6295 61.0734 51.1387 61.5573C50.6477 62.041 49.7501 62.1813 49.119 61.5502C48.4879 60.9191 48.6317 60.0179 49.119 59.5306Z" fill="#D3D3DD"/>
</svg>
