<svg width="160" height="64" viewBox="0 0 160 64" fill="none" xmlns="http://www.w3.org/2000/svg">
<path d="M69.2069 32.8886C69.2069 40.2396 63.475 45.6564 56.4406 45.6564C49.4062 45.6564 43.6743 40.2396 43.6743 32.8886C43.6743 25.4859 49.4062 20.1209 56.4406 20.1209C63.475 20.1209 69.2069 25.4859 69.2069 32.8886ZM63.6184 32.8886C63.6184 28.295 60.2963 25.152 56.4406 25.152C52.5849 25.152 49.2628 28.295 49.2628 32.8886C49.2628 37.4362 52.5849 40.6253 56.4406 40.6253C60.2963 40.6253 63.6184 37.4305 63.6184 32.8886Z" fill="#D3D3DD"/>
<path d="M96.7474 32.8886C96.7474 40.2396 91.0155 45.6564 83.9811 45.6564C76.9467 45.6564 71.2148 40.2396 71.2148 32.8886C71.2148 25.4916 76.9467 20.1209 83.9811 20.1209C91.0155 20.1209 96.7474 25.4859 96.7474 32.8886ZM91.1589 32.8886C91.1589 28.295 87.8368 25.152 83.9811 25.152C80.1254 25.152 76.8033 28.295 76.8033 32.8886C76.8033 37.4362 80.1254 40.6253 83.9811 40.6253C87.8368 40.6253 91.1589 37.4305 91.1589 32.8886Z" fill="#D3D3DD"/>
<path d="M123.141 20.8922V43.8143C123.141 53.2434 117.599 57.0944 111.046 57.0944C104.878 57.0944 101.166 52.9556 99.7661 49.5708L104.632 47.5388C105.498 49.6168 107.621 52.0691 111.041 52.0691C115.235 52.0691 117.834 49.4729 117.834 44.5857V42.7494H117.639C116.388 44.2979 113.978 45.6506 110.937 45.6506C104.574 45.6506 98.7448 40.0899 98.7448 32.9347C98.7448 25.7276 104.574 20.1209 110.937 20.1209C113.972 20.1209 116.382 21.4736 117.639 22.9761H117.834V20.898H123.141V20.8922ZM118.23 32.9347C118.23 28.4389 115.241 25.152 111.436 25.152C107.581 25.152 104.35 28.4389 104.35 32.9347C104.35 37.3844 107.581 40.6253 111.436 40.6253C115.241 40.6253 118.23 37.3844 118.23 32.9347Z" fill="#D3D3DD"/>
<path d="M131.891 7.45669V44.8735H126.441V7.45669H131.891Z" fill="#D3D3DD"/>
<path d="M153.132 37.0904L157.47 39.9916C156.07 42.0697 152.696 45.6502 146.866 45.6502C139.637 45.6502 134.238 40.0434 134.238 32.8824C134.238 25.2897 139.683 20.1146 146.241 20.1146C152.845 20.1146 156.075 25.3875 157.131 28.237L157.711 29.6876L140.699 36.7565C142.001 39.3181 144.026 40.6248 146.866 40.6248C149.712 40.6248 151.686 39.2202 153.132 37.0904ZM139.78 32.4967L151.153 27.7592C150.527 26.1646 148.645 25.0537 146.43 25.0537C143.59 25.0537 139.637 27.5692 139.78 32.4967Z" fill="#D3D3DD"/>
<path d="M23.0416 29.5668V24.15H41.2357C41.4136 25.0941 41.5054 26.2108 41.5054 27.4197C41.5054 31.4837 40.398 36.5091 36.8292 40.0896C33.3579 43.7161 28.9227 45.6503 23.0474 45.6503C12.1573 45.6503 3 36.7509 3 25.8251C3 14.8994 12.1573 6 23.0474 6C29.0719 6 33.3637 8.37165 36.5882 11.4629L32.7784 15.2851C30.4661 13.1092 27.3334 11.4168 23.0416 11.4168C15.0892 11.4168 8.86962 17.8467 8.86962 25.8251C8.86962 33.8036 15.0892 40.2335 23.0416 40.2335C28.1998 40.2335 31.1374 38.1554 33.0194 36.2673C34.5456 34.7361 35.5497 32.5487 35.9456 29.5611L23.0416 29.5668Z" fill="#D3D3DD"/>
</svg>
