<svg width="121" height="64" viewBox="0 0 121 64" fill="none" xmlns="http://www.w3.org/2000/svg">
<path fill-rule="evenodd" clip-rule="evenodd" d="M21.7131 12H22.9878L23.0121 12.0008C27.5207 12.1507 31.8217 13.825 35.2245 16.7149C38.6272 13.825 42.9282 12.1507 47.4368 12.0008L47.4611 12H48.7358L48.7601 12.0008C53.2687 12.1507 57.5696 13.825 60.9724 16.7149C64.3752 13.825 68.6762 12.1507 73.1847 12.0008L73.209 12H74.4838L74.5081 12.0008C79.0167 12.1507 83.3176 13.825 86.7204 16.7149C90.1232 13.825 94.4241 12.1507 98.9327 12.0008L98.957 12H100.232L100.256 12.0008C105.461 12.1738 110.388 14.3782 113.977 18.1389C117.566 21.8995 119.529 26.9152 119.442 32.1046C119.355 37.2941 117.226 42.2418 113.513 45.8811C109.801 49.5204 104.802 51.5599 99.5944 51.5599C94.861 51.5599 90.2999 49.8747 86.7204 46.8347C83.1409 49.8747 78.5798 51.5599 73.8464 51.5599C69.113 51.5599 64.5519 49.8747 60.9724 46.8347C57.3929 49.8747 52.8318 51.5599 48.0984 51.5599C43.365 51.5599 38.8039 49.8747 35.2245 46.8347C31.645 49.8747 27.0839 51.5599 22.3505 51.5599C17.1431 51.5599 12.1443 49.5204 8.43155 45.8811C4.71882 42.2418 2.58956 37.2941 2.50276 32.1046C2.41596 26.9152 4.37857 21.8995 7.96752 18.1389C11.5565 14.3782 16.4843 12.1738 21.6888 12.0008L21.7131 12ZM37.3088 44.7813C40.3324 47.2732 44.145 48.6514 48.0984 48.6514C52.0519 48.6514 55.8645 47.2732 58.8881 44.7813C55.8193 41.2756 54.0771 36.7886 53.9987 32.1046C53.9167 27.1996 55.6655 22.4498 58.8881 18.7683C56.0226 16.4068 52.4396 15.0385 48.6867 14.9085H47.5102C43.7573 15.0385 40.1743 16.4068 37.3088 18.7683C40.5313 22.4498 42.2802 27.1996 42.1982 32.1046C42.1198 36.7886 40.3775 41.2756 37.3088 44.7813ZM35.2245 20.8126C37.9001 23.934 39.3495 27.9307 39.2805 32.0561C39.2146 35.9929 37.7708 39.7665 35.2245 42.7371C32.6781 39.7665 31.2343 35.9929 31.1684 32.0561C31.0994 27.9307 32.5488 23.934 35.2245 20.8126ZM33.1401 18.7683C29.9176 22.4498 28.1687 27.1996 28.2507 32.1046C28.3291 36.7886 30.0714 41.2756 33.1401 44.7813C30.1165 47.2732 26.304 48.6514 22.3505 48.6514C17.9086 48.6514 13.6446 46.9117 10.4777 43.8074C7.31075 40.7031 5.4945 36.4827 5.42046 32.0561C5.34642 27.6296 7.02052 23.3512 10.0819 20.1434C13.1378 16.9413 17.3316 15.062 21.7622 14.9085H22.9387C26.6916 15.0385 30.2746 16.4068 33.1401 18.7683ZM60.9724 20.8126C58.2968 23.934 56.8474 27.9307 56.9164 32.0561C56.9823 35.9929 58.4261 39.7665 60.9724 42.7371C63.5188 39.7665 64.9626 35.9929 65.0284 32.0561C65.0974 27.9307 63.6481 23.934 60.9724 20.8126ZM63.0568 44.7813C66.0804 47.2732 69.8929 48.6514 73.8464 48.6514C77.7999 48.6514 81.6125 47.2732 84.636 44.7813C81.5673 41.2756 79.825 36.7886 79.7467 32.1046C79.6646 27.1996 81.4135 22.4498 84.6361 18.7683C81.7706 16.4068 78.1875 15.0385 74.4346 14.9085H73.2582C69.5053 15.0385 65.9222 16.4068 63.0568 18.7683C66.2793 22.4498 68.0282 27.1996 67.9461 32.1046C67.8678 36.7886 66.1255 41.2756 63.0568 44.7813ZM86.7204 20.8126C84.0448 23.934 82.5954 27.9307 82.6644 32.0561C82.7302 35.9929 84.174 39.7665 86.7204 42.7371C89.2668 39.7665 90.7106 35.9929 90.7764 32.0561C90.8454 27.9307 89.396 23.934 86.7204 20.8126ZM88.8048 44.7813C91.8283 47.2732 95.6409 48.6514 99.5944 48.6514C104.036 48.6514 108.3 46.9117 111.467 43.8074C114.634 40.7031 116.45 36.4827 116.524 32.0561C116.598 27.6296 114.924 23.3512 111.863 20.1434C108.807 16.9413 104.613 15.062 100.183 14.9085H99.0062C95.2533 15.0385 91.6702 16.4068 88.8047 18.7683C92.0273 22.4498 93.7762 27.1996 93.6941 32.1046C93.6158 36.7886 91.8735 41.2756 88.8048 44.7813Z" fill="#D3D3DD"/>
</svg>
